<svg data-name="Layer 1" xmlns="http://www.w3.org/2000/svg" viewBox="0 0 1673 1266.52"><title>Artboard 1</title><path d="M1637 36v645h-27v549.52H36V588h27V36h1574m36-36H27v552H0v714.52h1646V717h27V0z"/><path d="M555.23 681l-33.54-44.15-8.91 10V681h-12.05v-93.3h12.05v42.45l39.76-44.61 8.87 6.33L529.55 628l40.35 53zM578 646.57c0-25 17-34.06 31.37-34.06s31.24 9 31.24 34.06-17 33.93-31.24 33.93S578 671.46 578 646.57zm50.56 0c0-19-11.32-22.79-19.19-22.79S590 627.57 590 646.57s11.59 22.66 19.32 22.66 19.2-3.79 19.2-22.66zm72.88 33.93V642c0-14.67-7.34-17.42-13.1-17.42s-15.13 2.62-16.7 15.33v40.59h-11.78v-66.42H671l.26 5.76c4.59-4.32 12.37-6.55 18.53-6.55 11.13 0 23.45 7.07 23.45 27.51v39.7zm128.85-56.61H826c-6.16 0-13.93 5.34-15.63 19.62v37.21H798.6V614.3h11.61l-.08 9c4.72-6.68 10.61-9.05 17.29-9.05h3zm58.91 56.83l-.26-4.85c-5.11 3.93-11.4 5.63-18.34 5.63-12.71 0-23.19-5.63-23.19-19.39 0-12.58 8.65-19.13 23.58-20l17.56-1v-3.27c0-8.38-4.59-14.75-13.5-14.75-5.9 0-9.52 1.71-12.67 5.77l-11.56.13c2.62-8.52 12.58-15.38 24.76-15.38 15.59 0 24.76 10 24.76 22.92v44.28zm-.66-30.4l-17.56 1c-8.12.52-11.53 4.19-11.53 10.48 0 4.19 1.57 8.39 12.05 8.39 5 0 11.66-.92 17-7.6zm82.89 30.58l-25.81-33.41-4.32 3.93v29.48h-11.8v-93.28h11.8V637l32.47-30 8.17 7.68L954 639.89l31.45 41zm77.8.21l-.4-5.55c-4.16 5.55-11 6.33-17.43 6.33-11.27 0-23.58-7.08-23.58-27.51v-39.7h11.79v38.52c0 14.8 7.34 17.42 13.37 17.42s12.95-1 15.59-13.17v-42.77h11.79v66.42zm123.54-.21h-8.19c-17.82 0-17.95-9.17-17.95-21v-35.5H1135v-10.72h11.65v-20.17h12.12v20.18h14v10.74h-14v34.19c0 7.21 0 11.38 6.74 11.38h7.28zm-403.38 0h-8.19c-17.82 0-17.95-9.17-17.95-21v-35.47H731.6v-10.75h11.65v-20.17h12.12v20.18h14v10.74h-14v34.2c0 7.21 0 11.38 6.74 11.38h7.28zm337.36-22.28c0 7.21 0 11.27 6.87 11.27h7.28v11h-8.19c-17.95 0-17.95-10.9-17.95-21V601h-10v-12h22v70"/></svg>