<?xml version="1.0" standalone="no"?>
<!DOCTYPE svg PUBLIC "-//W3C//DTD SVG 20010904//EN"
 "http://www.w3.org/TR/2001/REC-SVG-20010904/DTD/svg10.dtd">
<svg version="1.0" xmlns="http://www.w3.org/2000/svg"
 width="700.000000pt" height="700.000000pt" viewBox="0 0 700.000000 700.000000"
 preserveAspectRatio="xMidYMid meet">
<metadata>
Created by potrace 1.11, written by Peter Selinger 2001-2013
</metadata>
<g transform="translate(0.000000,700.000000) scale(0.100000,-0.100000)"
fill="#000000" stroke="none">
<path d="M0 3500 l0 -3500 3500 0 3500 0 0 3500 0 3500 -3500 0 -3500 0 0
-3500z m1304 3061 c17 -1 -230 -251 -794 -806 l-61 -60 2 425 c2 234 5 430 6
436 3 8 122 10 416 8 227 -2 421 -3 431 -3z m1622 -4 c3 -3 -196 -207 -441
-453 -769 -773 -2025 -2031 -2026 -2030 -1 1 -2 216 -3 479 l-1 479 762 761
c419 418 767 763 773 767 12 8 929 5 936 -3z m1649 1 c2 -2 -925 -935 -2061
-2072 l-2064 -2069 0 487 0 488 1583 1584 1584 1583 54 3 c73 4 900 0 904 -4z
m1665 5 c0 -3 -1302 -1307 -2893 -2900 l-2892 -2894 0 480 0 481 97 97 c54 54
263 265 465 470 202 204 847 854 1433 1443 586 589 1246 1255 1468 1478 222
224 614 619 872 878 l469 471 491 0 c269 0 490 -2 490 -4z m334 -828 l5 -470
-1345 -1350 c-740 -742 -1823 -1829 -2407 -2414 l-1061 -1063 -60 0 c-122 -1
-891 14 -894 17 -1 1 1292 1297 2874 2879 1582 1582 2878 2875 2879 2874 2 -2
6 -214 9 -473z m4 -1622 l-3 -476 -690 -688 c-379 -378 -1099 -1095 -1600
-1592 l-910 -905 -472 0 c-260 0 -473 1 -473 2 0 6 4141 4136 4148 4136 1 0 1
-215 0 -477z m-3 -1639 l0 -496 -66 -66 c-70 -71 -1058 -1046 -1322 -1305
l-158 -155 -485 0 c-266 0 -484 2 -484 5 0 3 566 569 1258 1259 691 689 1257
1254 1257 1254 0 0 0 -223 0 -496z m10 -1612 l1 -408 -418 0 c-230 0 -418 2
-418 5 0 3 80 84 178 179 97 96 282 277 410 403 129 126 237 229 241 229 3 0
6 -184 6 -408z"/>
</g>
</svg>
