<svg xmlns="http://www.w3.org/2000/svg" viewBox="0 0 2000 2000"><defs><style>.a{fill:#369}</style></defs><title>text-oot</title><path class="a" d="M2000 1616v72l-32.7-8.88-30.12 27.14-24.59-34.75c-33 38.47-56.34 14-77.07-11.74-16.38-20.34-29-43-59.1-18.18-3 2.51-14.49-5.83-22.3-8.33-35.86-11.52-72.48-33.34-107.55-31.12-35.39 2.24-54.63-7-71.34-33-7.23-11.24-12.82-23.54-21-38.89-41 47.48-64.9 19.7-90.82 4.69-13-7.54-26.73-17.94-40.69-18.91-32.91-2.27-66.18 1.21-99.27.73-29-.43-57.85-1.3-73.27-34.69-2.85-6.18-23.33-9.16-33.28-6-16.6 5.22-31.27 16.57-47.43 25.71-4 31.47-20.12 53.85-44.4 53.16-25.19-.72-52.34-2.4-74.82-12.32-31.62-14-59.71-35.9-93.69-57.16 77.14-50.82-16.28-71.81-9.67-119.11 15.83 7.61 27.34 14.77 39.87 18.7 12.68 4 26.36 4.75 39.61 6.93-.31-14.09 3.89-30.71-2.2-41.56-6.25-11.14-22.55-16.65-36.85-26.22-20.49 45.79-48.68 20.18-69.65 6.94-53.65-33.89-104.26-69.85-173.74-46.66-71.33 23.81-120.8-47.69-188.84-46.8-30.13.39-60.17-19.29-90.74-21-46.86-2.57-74-54.22-124.48-45.55-4.68.8-15.06-13.79-17.19-22.59-1.29-5.34 6.68-15.72 13.07-19.64 24.32-14.92 48.69-22 69.92 6.62 3.6 4.85 12.17 6 18.45 8.89l7.12-9.23c-17.88-15.54-34.58-32.9-54.23-45.72-7.85-5.12-28.82-4.66-32.57.88-23.36 34.48-44 14.91-66.72.58-39-24.52-78.69-47.86-120.78-73.32 1.1-20.82-18.06-40.32-40.94-55.27-24.78-16.19-45.29-31.07-14.44-65.93l-55-9.49 5 40.52L0 912V704c23.6 26.35 52.7 49.43 46.93 91.58-.9 6.57 9 20.81 13.32 20.57 8.16-.44 16.52-8.09 23.56-14.17 4.45-3.84 6.66-10.28 16.89-27.07 23.69 30.88 43.45 56.62 63.2 82.38 4.79 6.25 8.2 15.71 14.48 18.31 38.09 15.79 26.11 46.9 24.77 71.29 21.32 16.69 39.53 34.5 60.95 46.69 20.38 11.6 46 27.17 65.93 23.4 31.84-6 113-1.1 137.22 21.54 9.43 8.8 17.33 19.34 25.3 29.58 9.12 11.73 15 29 26.79 35 26.61 13.73 48.06 27.25 34.74 64.87 47.5-.71 86 36.3 132.86 12.12 6.78-3.5 19.84 4.56 29.78 7.91 28.74 9.67 57.15 20.39 86.11 29.34 38.52 11.91 77.44 22.54 111.8 32.46 21.09 0 39-.52 56.83.17a374.41 374.41 0 0 1 42.46 4.09c23.28 3.58 51.25 1.52 68.26 14 17.31 12.74 38.3 48.1 32 59.67-14.37 26.54 3.64 39.79 13.34 50.15 18.3 19.54 42 36.4 66.63 46.52 10.43 4.28 28.51-13.26 44-17.27 12.06-3.11 27.45-4.77 38.12.07 63.55 28.86 138.75 12.6 199.22 52.36 3.59 2.36 8.73 2.35 24.34 6.2-32.83-29.76-57-52.11-81.84-73.59-3.08-2.66-10.17-.41-15.33-1-79.46-9.17-159-17.62-238.22-28.75-9.69-1.36-20-15.85-25.43-26.58-16-31.43-24.75-67.8-45.62-95.15-21.82-28.59-54.43-48.95-82.38-73-51.86 54.07-72.92 53.29-132.79-4.33-5.95-5.72-15.52-7.69-28-13.54v53.46c-39.58-25.8-105.33 2.37-111.6-73.06l-64.33-9.45c-11.22 43.3-44 30.3-73.27 35.95l4.83-43.16c-41.82-4.23-64.51-28.77-90-61.47-27.82-35.73-72.23-64.39-115.25-79.76-19.2-6.86-38.34-10.09-47.23-27.08-18.19-34.72-43.67-48.88-82.39-43.43-6.66.94-17.64-7-21.73-13.73-11.65-19.24-16.39-44.83-32-59-20.73-18.87-51.31-26.56-73.56-44.21-19.45-15.43-29.76-44.62-63.53-29.7-1.92.85-11.42-11.63-14.9-19.07-4.41-9.44-3.13-23.42-9.75-29.64C17.82 671 36.75 644.95 66.55 619c34.81 17.79 86.43 20.86 94.11 61.88 14.25 76.13 74.16 84.55 125.14 83.28 42-1 69.9 15.56 100.85 32.27 13.65 7.37 22.13 24.32 39 44l-49.85 4.12 85.74 77.24c7.36-1.54 22.74-10.09 31.3-5.61 32.64 17.11 63.32 38.05 94.27 58.27 23.18 15.14 45.66 31.37 71.94 49.52l-5.79 29.03c21.19-13.61 34.15-26.67 49.46-30.6 20.16-5.17 55.79-11.51 61.09-2.86 27.3 44.58 61.42 54.52 108 38.22 5.66-2 13 1.13 19.65 1.64 45.68 3.54 92.27 32 136.85-5.85 3.46-2.94 17.67 2.68 23.95 7.88 32.44 26.85 63.93 54.85 95.76 82.46l-16.2 17.51c56.14 22.25 57.88 25.82 33.58 63 28.21 38.62 60.11 68.58 113.75 66 21.32-1 50.59 2 63.47 15.45 46.67 48.67 114.78 15.15 164.13 48.33 3.82 2.57 15.52.16 18.43-3.75 19.12-25.73 46.48-20.14 72.52-22.12 22.18-1.68 56.39-16.88 63.85-8 21.78 25.85-17.92 20.66-25.8 33.72-.6 1-.7 2.28-3.09 10.46 39.09 8.73 66.41 48.45 119.76 43.84l-65-61.07c37.68 0 62.71-1.38 87.42.82 7.7.68 20.67 11 20.74 17 .3 28.12 17.94 28.38 37.82 28 39.95-.78 78.81-1.5 113.38 26.73 12.64 10.32 35.15 8.54 53.17 12.28v160c-11.45-3.24-27.58-2.78-33.56-10.35-31.48-39.81-73.92-41.61-118.56-39.74-4 .17-8.26-5-12.4-7.75l-1.3-11.19 75.7-15.7c-12.36-36.63-39.64-37.13-70.23-36.25-23.88.69-47.88-5.81-71.92-6.74-16.9-.65-37.73-2.88-50.11 5.49-22.88 15.49-39.74 9.27-50.72-8.82-29-47.84-77.65-51-124.34-58.55-7.26-1.17-21.7 5.85-23.14 11.54-4.62 18.2 29.69 43.91 49.4 38.8 32.77-8.5 58.61-4.63 76 30.43 7.19 14.54 25.18 31.46 39.85 33.11 40.41 4.53 81.66 1.57 116.56 1.57 1.72 10.77-.54 28.75 6.08 33.05 54 35 124.37 28.13 177.39 67.51 2.93 2.06 10.14-1.57 15.35-2.5zm0-1048v112c-7.8-6.54-18.21-20.25-23-18.51-50.14 18.3-59.94-21.09-75.36-52.14-35.43 30.25-47.11 24.92-56.71-23.29-38.77-7.62-77.79-12.87-115-24.11-10.93-3.3-17.62-23.1-24.61-36.22-6-11.21-6.21-27.89-14.86-34.82-29.55-23.65-61.16-44.89-93.09-65.31-12.75-8.15-39.66-10-40.9-17.78-8.37-52.49-58.85-40.08-80.72-40.28-84.2-.8-150.28-34.18-219.56-93.15l-10.64 33.08-66.92-53.47c-8.87 5.34-18.09 15.5-27.7 15.89-43.63 1.76-87.37.77-124.57.77-23.48-11.27-43.42-19.68-62.23-30.11-38.83-21.55-55.28-72.25-104.41-80.73-13.42-2.32-26.74-5.32-40.22-7.12-11-1.47-22.34-1-33.39-2.47-36.14-4.77-70.81-25.88-108.93-7.61-25.7 12.32-33.66 2.34-35.91-25.22-1.11-13.66-16.09-31.7-29.21-37.15-10.93-4.54-28.48 5.82-42.75 10.62-16.21 5.45-32 16.87-48 17-23.33.22-46.62-8.29-70.17-11.16-14-1.71-36.19-5.47-41.39 1.55-24.29 32.79-40.93 15-60.13-10.17l-14.85 41.08C290.21 75.38 249.42 12.92 170.14 85.3c-23.57-12.7-51.54-26.93-85.38-8.18-10.14 5.62-29.65-6.62-45.1-9.32C26.62 65.52 13.23 65.19 0 64V0h576l24.82 29.12c24.49-21.48 43.52-4 64.26 8 32.94 19 65.06 52.38 103.3 5.52 6.31-7.73 25-7.48 37.88-7.35 35.37.36 73.27-20.14 105.49 11.74 2.26 2.23 9.75-1.52 14.71-1.19 9.73.65 22.55-1.24 28.43 4.12 12.29 11.21 20.91 26.46 31.33 40.44l-25.76 10.43c4.26 5 5.55 7.75 7.69 8.78 30 14.39 41.74 54.32 93.53 41.57 33.58-8.27 77.11 28.24 117.39 40.84 18.83 5.89 43.71-3.53 60.22 4.94 31.38 16.1 58.71 40.09 89.34 61.95l34.86-27c20 13.82 41.41 29 63.27 43.39 8.23 5.43 17.18 10.55 26.53 13.32 18.32 5.44 38.66 6.09 55.42 14.32 21.52 10.56 38.89 29.93 60.69 39.5 28.84 12.66 59.91 25.81 90.62 27.4 47.89 2.49 78.8 35.8 102.16 63.71 45.06 53.82 98.1 72.28 163.08 73.79 18.49.43 32.27 4.18 27 30.77-6.93 35.14 9.74 44.33 47.74 29.89zM0 1696v-96c13.86 5.57 35 19.68 40.3 15.17 19.91-16.92 35-36.95 58.21-5.6 40.61-18.6 66.28 35.84 106.21 22 1.71-.59 5.45 4.71 8.77 7.74l-9 21.65c19.14 19.47 39.55 32.9 49.33 51.82 16.91 32.72 27.23 68.85 41.57 106.85 29.48-24.44 54.2-36 84.67-15 4.54 3.12 20.72-6.52 28.76-13.44 20.26-17.46 39.75-31.34 66.95-13.19 4.5 3 13.81 4.56 17.59 2 44.68-30.62 84 3.94 123.55 13 37.17 8.52 70.18 33.93 111.81 17.93 5.19-2 19.2 4.81 20.87 10.12 11.42 36.46 32.7 17.06 53.74 12.82 24.2-4.87 49.46-5.13 74.3-5.82 12.93-.36 26.4 5.59 38.87 3.69 60.11-9.18 119.84-20.91 180-29.66 13.18-1.92 28 3.33 41.33 7.66 19.62 6.4 38.09 16.56 57.89 22.15 25.18 7.11 51.29 10.81 76.81 16.77 28.65 6.68 57.21 20.22 85.59 19.64 25.42-.52 42.78 2.94 58.73 22.61 10.6 13.07 30.35 35.22 36.89 32.37 38.2-16.62 54 18.57 79.68 29.07 53.32 21.77 79.68 9.69 116.58-37.36 14.73-18.79 29.88-51.88 73.14-35.25 26.4 10.15 47.89 14.73 70 38.36 35.51 38 80.29 70.8 139.31 69 9.07-.28 18.42 8.4 27.64 12.94H1488c-23.12-7.26-46.17-14.76-69.39-21.71-44.74-13.4-90.08-25-134.25-40.08-52.86-18-104.5-39.65-157.36-57.68-7.87-2.69-20.37 4.3-29.33 9.32-42 23.56-75.94 18.09-101.15-15.88-18.4 9.51-35.57 23.72-54.66 27.13-41 7.33-84.91-.72-119.91 32.83-6.92 6.63-27.18 2.2-40.28-1.12-20-5.06-38.73-15.05-58.69-20.34-34.58-9.16-70.16-14.72-104.42-24.83-25.87-7.63-50.34-20-76.64-30.74-11.89 51.41-44.17 78.19-88.72 75.58s-89-9.57-133.25-16.27c-7.43-1.12-18.63-9.91-19.52-16.33-5.83-42.42-38.88-36-60.72-27.65-35.36 13.53-55.66.09-67.36-27.82-11.14-26.6-27.78-33-52.92-28.91l1.21 1.09c-8.56-10.88-17.21-21.7-25.65-32.67-6.75-8.77-13.27-17.73-19.88-26.6 12.25-1.11 24.6-3.77 36.73-3 20.06 1.3 40 4.82 67.6 8.39-33.6-61.96-47.16-66.75-89.44-42.75-4.82 2.74-12.61 3.29-17.95 1.56C47.83 1713.68 24 1704.63 0 1696z"/><path class="a" d="M307.94 994.06c17.75-43.82-5.83-63.73-66.74-62zM0 1944v-200c6.49 4 16.33 6.44 18.94 12.18 22.51 49.59 52.27 67.83 101.73 60.4l-1.21-1.09c8.38 56.41 59.51 108.83 112 113 9.59.75 20.75-9.12 29.36-6.92 38.89 9.94 76.45 26.64 115.76 32.91 41.11 6.55 81.7 32.56 125.64 8.19 23.58-13.08 48.83-23.14 73.1-34.46l11.42-46c15.63 18.13 23.15 31.06 34.28 38.81 17.76 12.37 36.84 25.4 57.29 30.74 32 8.33 66.28 7.61 98.17 16.1 27.3 7.27 86.78-3.36 104.1-24.91 20.19-25.11 69.39-32.91 88.61-14 35.78 35.12 80.45 35.51 116.42 1 24.64-23.62 41.48-21.2 61.44 8.56 2 3 5 6.81 8.09 7.38 43.61 8.11 87.79 13.76 130.82 24.18 25.61 6.2 49.46 19.72 74.09 29.94H112l24.67-31.89c-25.86-5.82-61.57-24-72.19-14.35C33.22 1982 18.45 1966.11 0 1944zM723.36 813.27c12.37 33.54 56.54 54.16 88.32 41.1-28.4-16.37-43.88-59.19-88.32-41.1zM2000 56c-39-.85-79.45 4.39-116.34-4.81-22.73-5.67-40-33.37-59.66-51.19h176zM808 0c-10.64 6.94-20.61 15.38-32.06 20.48-17 7.57-35 12.79-60 21.59L640 0z"/><path class="a" d="M307.94 994.06l-66.74-62c60.91-1.73 84.49 18.18 66.74 62zm415.42-180.79c44.43-18.09 59.92 24.7 88.32 41.1-31.78 13.05-75.95-7.57-88.32-41.1zm1199.69-653.59c29 15.85 51.18 15.41 76.95.32V96c-3.86.32-10.15 2.28-11.22.7-24.05-35.44-41-22.16-56.82 10.3-32.47-12.76-64-30.32-97.8-37.23-48.83-10-91.21-28.69-131.8-57.52-11.37-8.07-37.83 5.1-61.89 9.32L1632 0h-344l-26.43 76.39c-24.5 7.55-51.83-14.05-85.57-76.39H952c12.66 12.38 26.37 23.88 37.56 37.47 6.44 7.83 8.78 19 13.91 30.89 54.1 7 54.1 7 33.28 56.36 15.27.78 29.35 2.16 43.42 2 13.21-.12 26.4-1.82 41.2-2.94 1.84-5.14 2.76-10.33 5.37-14.45 6.65-10.51 14.06-20.54 21.17-30.76 2.49 11.17 2.63 23.67 8 33.22 8.75 15.55 18.11 36.72 32.25 42 25.92 9.64 55.82 7.92 83.43 13.9 14.87 3.22 28.08 13.43 42.63 18.93 16.57 6.27 34.13 9.92 50.66 16.28 35.68 13.73 71.85 26.67 106.15 43.36 26.65 13 50.76 31.13 76 46.92 5.41 3.38 10.68 7.3 16.54 9.63 33.82 13.46 67.46 27.51 101.89 39.24 14.66 5 32.67 1.42 46.32 7.81 20.73 9.7 41.26 17.68 55.79 41.76 12.77 21.16 43 28.17 60.42-11.43 5.8 12 13.09 19.79 11.6 25.15-9.67 34.67 2.71 47 37 40.25C1904.46 494.94 1965 464.32 2000 496V352c-33.54 26.09-69.7 28.13-106.43 8.9-29.13-15.25-57-32.92-85.26-49.81-5.59-3.34-11.57-7.14-15.34-12.24-34.07-46-43.15-47.8-107.95-47.31-13.44.1-27.05-22.6-38.24-32.67l74.73-31.87c56.9 15.52 94.27 69.42 139.24 114.17 19.78 19.69 42 37.52 71.62 10.64 5.36-4.87 20.88 1.43 22.05 1.55L2000 288v-72c-57.12-11.8-122.06 1.4-166.18-51.84-3.12-3.76-5.09-8.47-4.13-25 31.44 6.26 66.52 5.84 93.36 20.52zm-295.6 11.16c-10.61 5.88-23.7 8.94-32 17-32.42 31.53-42.2 29.23-56.58-14l32.91-14.32-22.23-38.68c-22.52 5.74-37.75 14.68-49.74 11.48-17.85-4.77-35.15-16.07-49.57-28.26-25.14-21.24-48.63-30.28-77.57-6.83-5.12 4.15-19.49 3.68-24.94-.59-20-15.72-38.13-33.94-60.19-54.19 67.6-5.43 126.27 24.33 186.22 31.24 70.37 8.12 115.32 61.71 182.93 63.14l1.65 15.54c-10.29 6.2-20.4 12.63-30.88 18.47zm324.74 1556.7c-1.49 5-17.34 11-23.38 8.55-75.72-30.3-150.85-62.05-234.73-97-18.39 1.5-49.68 8.77-79.3 4.5-14.74-2.13-33.26-23.49-37.85-39.62-6.5-22.85-14.3-28.72-35.67-21.91-8.55 2.72-21.53 6.66-26.62 2.63-26.79-21.24-45.77-15.9-57.87 18.3-11.17-9-19.37-13.51-24.77-20.28-21.64-27.16-41.61-42.61-83.1-31-29.85 8.33-67.55-6-100.33-15.32-26.63-7.54-45.63-7.77-68.4 12.64-56.09 50.27-113.67 49.79-185.27 5.11-10.91-6.81-23-12-35.08-16.61-12.65-4.8-25.92-8-38.92-11.83 5.12-16.5 9.84-33.14 15.59-49.41 2-5.79 6.59-10.7 15.79-25.07l-96.15-9.84v29.79c-24.73 2-46.34 2.19-42.56-35.23 1-10.27-9-21.2-10.62-32.32-2-13.37-.47-27.25-.47-40.92l10.12-1.7 39.17 55.61 62.87-54.84c-31.41-22-61.79-43.74-92.76-64.58-4.77-3.21-14.4-5.56-18.15-3-64.76 44.2-129.18 28.2-194 .72-5.45-2.31-14.62-3.7-18.41-.78-28.77 22.16-45.45 1.53-63.56-16.23-19.45-19.07-39.1-33.52-68.57-15.67-8.17 4.95-24.65 2.72-34.14-2.26-33.25-17.46-67.19-34.81-97-57.35-36.6-27.69-73.62-57-102.44-92.17-28.07-34.27-52.53-45.64-86.54-16-4.8-2.18-9.25-3.58-9.14-4.24 8.32-51.58-39.86-72-59.63-108-17.22-31.32-45.1-18-70.3-14.2v152c22.7 4.86 45.81 8.32 68 14.88 41.44 12.24 82.7 25.3 123.31 40 17.29 6.28 32.72 17.64 57.45 31.38-41.05 20-65 22.8-81.69-10.34-2.28-4.53-11.47-9.77-15.61-8.53C91.38 1205.54 52.69 1150.33 0 1144v72c35 10 72.9 14.66 104 31.72 28.66 15.72 69.36 19.78 80.87 60.82 1.26 4.5 13.51 8.25 20.74 8.38 52.06 1 104.14.56 156.2 1.44 8.7.15 17.59 3.7 25.93 6.89 18 6.88 35.64 14.54 55.84 22.88 14.18 58.5 74.38 65.53 139 34.53 16.37-7.85 44.66 1.12 64.18 9.77 26.77 11.87 50.81 30.23 75.16 47.05 8.32 5.75 14 15.25 28 31-49.6-15.09-87.88-24.73-124.32-39.05-10.93-4.29-16.73-21.61-29-38.68l-6 36.94c-4.66 2-7.58 4.55-9.29 3.89-34.2-13.07-66.54-16.1-103.5-3-42.73 15.19-51.35 6-63.45-40.09-1.53-5.84-5.72-15.39-9.22-15.65-50.46-3.61-93.38-50.74-152.07-18.07-24.93 13.88-63.65 3.33-96.09 3-4 0-10.59-5.21-11.45-9-11.59-51.63-51.66-64.12-96-72.24-16.82-3.08-33-9.57-49.49-14.51v88c5.63 12 12.07 23.78 16.64 36.21 3.95 10.73 3.11 23.95 9 33.1 25.15 39.1 46.85 42.25 84.26 14.56 40.82-30.22 61.38-29.43 88.81 3.78-25.1-.85-28.64 34.93-63 31.37-35.68-3.7-74.07 18.73-109.08 29.07L0 1456v112c10.46 1 20.91 2.06 31.38 2.93 14.49 1.2 33.05 8.53 42.78 2.25 36.59-23.63 64.67-28.81 95.83 11.09 13.5 17.28 38.56-5.14 48.18-50.31l54.56 22.82-1.45 8.41-29.78 8.64 19.69 37.17c-32.68 10.7-37.66 22.94-9.16 46.45 17.13 14.13 25.53 38.78 38.07 58.57 9 14.23 18.38 28.23 29.93 30.29 57.67-3.34 115.46-10.43 173-8.62 34.31 1.08 66.9 13.24 98.07-13.23 4.38-3.72 33.54 9.09 36.82 19 12.12 36.66 36.87 38.79 65.94 29.87 57.28-17.59 109 14.32 164.21 16.77 38.64 1.72 74.65 20.16 115.16-2.92 22.74-13 55-14.85 82.32-13 56.24 3.85 112.3 12.17 168 21.34 44.71 7.36 89.71 15.7 132.8 29.25 32.21 10.13 61.14 30.31 92.44 43.91 14.16 6.15 30.42 7.89 45.93 10.41 19.59 3.18 38.47 2.7 38 32.77-.34 19.47 51.33 36 69 19.83 20-18.36 30.08-47.82 50.47-65.55 19.91-17.31 47.28-26.13 71.73-38 2.28-1.1 7.1 2.92 10.7 4.66 57.92 27.91 87.46 16.73 115.18-44.17 46.09 22.9 113.65-6.16 140.15 69-24.64-7.88-52.48-11-73.11-24.85-25.1-16.85-39-17.7-53.17 11.08-10.22 20.73-31.1 44.12-27 61.61 3.61 15.51 37 22.32 53.78 36.95 20.86 18.2 39.93 26.84 68.26 16.69 11.29-4 27.45 5.53 41.4 8.9V1712c-18.7-3.53-38.95-14.51-47.92 15.54zM200.73 1440.31l89.56-31.61c-26.88 61.12-63.01 69.82-89.56 31.61zm1464.55 362c-6.21 6.42-25.29 6.31-35.28 1.92-20.24-8.9-37-26.14-57.54-33.78-30.06-11.2-62.66-15.4-93.15-25.64-20.88-7-39.5-20.54-60.1-28.69-18.55-7.34-41.35-27.47-49.58 12.89l-67.82-41.36c-20-12.2-38-22.28-59.55 1.58-5 5.49-33.43-1.6-43.41-11-24.85-23.47-47.85-20.67-76-8.54-12 5.17-28 .86-46.47.86l-7.42 29.13c-12.67-1.29-28.1 1.89-35.43-4.39-46.85-40.13-99.45-23.78-152-21.69-30.6 1.22-62-9.79-92.36-18-6.4-1.74-12.34-15.08-13.57-23.77-2.19-15.48-.61-31.49-.61-46.44-64.72 0-126-.28-187.3.36-7.29.08-15.81 3.55-21.59 8.17-35.61 28.47-68.32 21.89-99.57-6.93-32.67 36.2-29.31 34.08-55.52-7.49-22.5-35.69-56-64.34-80.09-99.21-7.76-11.22-1.22-32.32-1.22-48.9l20-6.19c14.21 21.68 33.71 41.63 41.53 65.41 16.21 49.26 74 88.22 121.11 73.6 8.56-2.66 14.21-14.68 28.63-30.56 7.57 2.66 25.34 13.2 43.43 13.79 12.3.4 25.06-13.15 44.4-24.42 40.75 34 98.33 17.38 153 19.66 55.38 2.31 66.71 20.13 37.52 74 18.7 4.48 35.6 9.44 52.85 12.48 43.75 7.72 87.63 14.68 131.49 21.71 10.41 1.67 21.11 4.12 31.44 3.26 25.12-2.09 50.16-5.44 75.11-9.16 39.32-5.87 78.54-12.46 115.2-27.37l59.5 24.5c6.5 35.64 32.69 39.39 76.24 30.66 28.71-5.75 62.48 12.89 93.77 21.41 10 2.72 19.28 8 28.89 12.07 3-12.1 7.66-24.11 8.26-36.33.39-8-5.14-16.28-9.8-29.49 35.07 11.31 36.6 36.65 41 60.84 7.4 41.07 96 78 130.44 54.43 3.92-2.68 7.12-8.14 8.25-12.89 10.3-43 33.05-24.51 58.8-12.07-20.53 27.12-35.93 51.36-55.48 71.58z"/><path class="a" d="M1298.74 1103.38c4.9 8.1 18.58 13.53 29 15.16 28.07 4.39 47.64 15.84 50.37 46.63.12 1.33-.15 3.25.61 3.87 8.95 7.37 23.7 22.42 26.27 20.58 35.84-25.71 77.31 67.29 110.41-8.09 11.65 4.41 23.81 13.21 35.32 12.43 19.44-1.31 43.76-3 56.48-14.81 20.77-19.28 38.48-21.39 64.46-15.16 55 13.19 111.62 19.85 166.21 34.32 20.6 5.46 37.44 25.12 58.31 39.95 7.21-6.22 16.68-11.66 22.28-19.77 14-20.31 26.74-15.5 42.7-2.26 11.56 9.59 25.81 16 38.85 23.77v-120c-5.19.86-13.29 4.29-15.15 2.19-32.06-36.11-76.82-9.77-113.41-23.29-6.18-2.29-15.57.91-22.37 4-42 19.06-58.61 13-80.84-24.14-7.83-13.09-23.1-22.46-36.44-31.31-11.59-7.69-25.26-12.25-35.81-17.17l12.22-42.46c-13.14-.82-26.87.49-39.29-2.94-20.78-5.74-42.17-12-60.67-22.57-30.33-17.4-58.59-38.4-87.6-58.06-5.47-3.71-11.89-7.33-15.21-12.65-11.73-18.75-48.24-13.39-46.44-47.69.12-2.34-34.42-11.46-51.52-8.85-58.48 8.95-83.3-2.93-105.46-55.92-2.72-6.5-10.18-17-13.53-16.34-42.94 8.8-62.72-30-94.18-44.14-10.67-4.8-22.17-7.77-33.29-11.59-23.27-8-46.37-16.55-69.86-23.81-16.47-5.09-33.79-7.49-50.2-12.75-25.89-8.28-50.9-19.67-77.14-26.36-14.5-3.7-34.08-6.17-45.61.6C878 668.39 847 661.4 828.36 620c-16.91-37.47-40.69-67.51-84-75.93-3.74-.73-7.45-2.79-10.65-5-60.32-41.65-63.45-41.81-120-5.07-54.59-38.8-118.6-39.68-181.48-44.24-8.36-.61-18.38 3.41-25.57 8.32-23.26 15.88-22.89 16.42-49.88-8.05l58.79-19.62c-31.47-31-81.93-36.71-122.78-16-64.51-49.21-72-49.06-110.32 8.06-19.22-11.13-38.58-23.4-58.87-33.84-29.67-15.34-60.35-28.63-89.89-44.16C21.54 378.09 11.18 368.26 0 360v168c47.93-56.76 175.48-28.84 211.89 14.09 28 33 40.19 33.68 78 .37 16.35 13.66 35.12 26 49.57 42.18C362.07 609.94 386 613 420 612.61c30.86-.31 62 26.59 93 41.49l-3.26 10.44-38.95 8.7c11.75 52 22.28 55.27 71.34 58.5 38.6 2.54 80.87 10.9 113.19 30.43 34.62 20.93 68.06 15.51 102.73 19.49 14.7 1.69 29.85 9.48 42.38 18 35.35 24.09 67.92 52.76 105 73.53 11 6.18 33.35-7.76 54.65-4.7l-25.37 30.15c43.61-15.2 52.85 57 99.22 22.81 3.16-2.32 13.3 4.73 20.14 7.54 15.77 6.49 31.58 18.66 47.26 18.49 41-.44 55.33 29.09 80 61-34.54-14-60.93-27.3-88.85-35.25-25.07-7.14-52.28-6.51-77.64-12.93-18.25-4.61-37.47-12.11-51.85-23.76-23.31-18.87-47.14-22.39-76.4-28-61.52-11.85-135.8 8.19-182.87-54.88-4.9-6.56-16.06-8.44-27.14-13.88l17.34-24.35c-5.73-2.75-9.12-5.83-12.44-5.75-73.39 1.79-134.72-33.88-197.61-64.1-8.74-4.2-17.69-13.3-21.17-22.23-16.8-43.06-43.71-66.75-92.83-72.58-17.68-2.1-54.38-11.69-53.9-49.85.05-4.23-27.86-15.23-39.87-12-42.55 11.3-72.1-1.35-95.1-37.59-4.56-7.19-16.36-10.61-25.49-13.89-15.29-5.5-30.91-10.56-46.8-13.75C97 521.32 84 519.58 72.63 522.2 48.05 527.89 24.17 536.55 0 544v144c5-10.23 15.58-21.41 14-30.54-8.65-51.51 16.47-66.46 80-56.88 58.67 8.81 94 48.9 128 90.15 21.5 26.09 43 37.06 78.3 32.41 22.17-2.92 48.13 7.48 69.49 17.86 25.95 12.62 52.43 28.19 71.7 49 11.29 12.17 9 37 12.77 56.07l-12.36 8 158.5 67.1c23.61 19.33 50.5 41.67 77.88 63.4 3.78 3 11.2 5.61 14.86 3.92 65.21-30.15 115.69 12.55 170.13 34.22 34.45 13.71 67.35 19.59 104.11 5.33 45-17.45 76.8-4.7 110.38 31.56 11 11.88 29.61 16.61 44.51 25 14.24 8.06 32.24 13.57 41.4 25.66 20.48 27 37.36 57 53.64 86.91 3.63 6.67-1.23 18-3.05 35.61 13.59 3.91 31.25 12.73 49.23 13.41 43.27 1.64 79.06 13.63 108.24 48.42 8.19 9.77 40.68 14.91 45.68 8.81 19.36-23.66 37.31-11.12 51.92-1.25 44.91 30.36 80 3.24 116.87-16.06 8.86-4.64 18.48-15.55 25.87-14.09 68.35 13.48 140.73 9.39 202.74 51.42 25.38 17.21 57.42 24.38 85.92 37.27 33.39 15.1 66.21 31.44 99.28 47.25V1264l-81.23 6.1 1.18 4.11c-23.46-5.12-47.18-9.29-70.27-15.71-13.58-3.78-28.66-8.33-38.79-17.34-53.73-47.77-118.23-30.45-178.61-28.63-57.24 1.72-115.4 6.92-168 36-7.11 3.93-20.37-.72-29.81-4.1-20.44-7.33-40.24-16.41-64.44-26.5-23.33-57.82-70.9-95.09-137.13-112-10.15-2.59-17.22-17.28-27.32-28.11 48.9-22.05 68.98-14.38 93.15 25.56zM638.2 680.4c-40.13-27.15-78.62-56.94-116-87.76-8.33-6.87-9.27-22.71-15.62-39.86 4.75-1.26 19-7.92 21.16-5.15 18 23.11 56.52 21.06 63.25 61.38 5.35 32 31.75 19.52 47.56 2.53 23-24.76 44.24-19.36 65.43-4.48l-38.26 30.77 51.71 38.35c-24.03 21.09-52.43 22.37-79.23 4.22zm561.57 215.92c-.52-32.58-20.88-42-45.6-51.51-18.25-7-35.1-17.67-55.46-28.21l18.77-24.39-2.07-11.91c-24.48 2.17-48.94 5.6-73.45 6.17-24.94.58-50-1.34-74.9-2.87-6-.37-12.3-6-17.8-5.06-67.51 10.91-101.82-9.61-120.13-75.77C905.67 720.92 969.08 790.11 1069 743c30.57 20.58 71.69 49.4 114.06 76.25 17.18 10.89 38.15 15.82 55.3 26.75 8.75 5.57 16.21 17.68 18.48 28.1 8.76 40.15 26.61 51.64 66.18 39.84 20.58-6.14 41.3-11.77 62-17.63l.49-16.07 55.49 29.59-103.49 44.29-1.2 14.86c24.5 9.36 48.79 19.38 73.59 27.87 17.26 5.91 37.4 6.17 52.39 15.3 25.72 15.65 37.29 11.21 37.41-25.6l55.24 29.27-40.11 14c1.83 4.42 2.53 10.36 4.86 11.09 33.24 10.37 66.46 26.64 100.19 27.91 30.15 1.14 46.91 9.22 58.33 34.62-36.93 27.38-65 24.3-98.89 5.09-38-21.54-82.74-31.31-120.84-52.76-38.51-21.68-74.37-39.5-121.26-35.38-12.7 1.12-26.87-31.06-42.74-45.31-20.92-18.78-44.34-34.74-66.35-52.33-10.35-8.31-28.22-17.45-28.36-26.43z"/><path class="a" d="M2000 856V704c-9.81 2.06-21.86 8.84-29.06 5.42-45.25-21.48-89.58-44.93-133.89-68.34-26.77-14.15-53.6-28.38-79.29-44.35-69.5-43.2-134.37-92.17-186.28-156.43-1.67-2.07-3-5.25-5.13-6-52.43-18.05-104.78-36.4-157.55-53.41-21.76-7-44.58-10.69-66.73-16.57-20-5.3-39.6-12-59.59-17.28-41.7-11-83.61-21.25-125.24-32.5-7.2-1.95-14-6.67-20-11.32-22.08-16.92-42.15-19.2-58.82 10.94-26-37-44.52-23-60.7 8.34-69.83-30.82-112.07-103.17-194.35-123.08l13.89 40.41c-8.06 0-17.38 2.92-22.3-.49-26.22-18.21-50.54-39.23-77.28-56.55-8.78-5.68-23-5-34.48-4.1-33.26 2.6-62.93-2.47-88.11-27.31-7.42-7.32-20.67-9.88-31.75-12.06-19.8-3.9-40.16-8.89-59.94-7.71-16.62 1-32.75 10.11-53.12 17-16.88-23.55-38.77-17.08-62.16 2-7.66 6.24-18.74 9.93-28.74 11.29-19.18 2.61-38.71 2.72-63.63 4.19-11.08-7.5-31.13-18.28-47.37-33.21-8.58-7.88-9.26-23.75-15.85-34.59C247.13 89.44 238.29 82.7 231 75c-6.7 8.22-14.94 15.64-19.71 24.85-5.86 11.34-8.83 24.17-10.77 29.78-61-6.54-117.28-12-173.38-19.14C17.62 109.33 9 101 0 96v88c30.3-8.17 60.4-21.63 91-22.75 22.28-.81 47 11.57 67.35 23.55 34.57 20.3 55.75 68.54 103.93 58.84 36.46-7.34 50.9 11.77 66.15 36 2 3.24 3 7.13 4.23 10.06 55.5 7.59 111 11.2 164.33 24.1 27.89 6.75 59.71 24.21 75.77 46.79 26.75 37.6 69.07 24.87 100.76 42.89 5.35 3 20.1-10.45 26.27-13.93 37.67 8 75 13.28 110.57 24.33 32.42 10.08 65.39 22.6 93.54 41 32.33 21.18 61.89 21.8 95.36 7.87 4.83-2 12.72 2.34 18.87 4.62 22.85 8.49 45.56 17.34 68.32 26.06l.18 11.82q-52.28 4.62-104.57 9.22c-13.09 1.14-27.7 6.25-39 2.2-20.08-7.21-38.41-19.57-57-30.65-13.94-8.33-25.94-22.9-40.73-26.28-69.83-15.93-139.86-32.43-210.73-41.94-57.23-7.67-97.28-40.62-138.81-74.17-3.93-3.18-9.95-6.32-14.54-5.75-49.05 6.07-91.6-21.67-139-26.37-28.45-2.82-55.47-20.14-87-32.46l-9 17.08-80.84-27.51-41.33-83C78.32 183.05 47 231.18 0 208v112c22.92 16.41 43.08 61.17 69.24 6l65 21.68-11.5 24.27c17.35 10.56 33.88 21.37 51.16 30.8 7.34 4 19.59 9.92 23.94 6.87 54.75-38.29 105.23 10.72 157.87 6.34 14.92-1.24 29.68-6.15 44.51-6.1 10.08 0 27.75 4 29 9.25 10.07 42.66 51.85 41.19 75.52 40.66 36.6-.83 62.74 15.14 92.65 27.37 23.73 9.7 48.33 16.33 61.83-16 19.8 7.43 41.13 11.91 58.58 22.68 42.27 26.09 84.32 53.08 123.3 83.72 22.92 18 43.57 32.25 74.43 30.27 19.37-1.25 39.13 6 58.84 7 26.55 1.34 53.22.33 87 .33 22.23 42.81 69.87 62.57 121.52 75.58a48.63 48.63 0 0 0 23.2-.32c36.16-9.44 61.07-1.23 75.35 37.14 10.31 27.7 104.11 70.15 133 67.82 12.4-1 29.1 3.47 37.74 11.79 41.82 40.29 85 75.62 137.77 103.7 34 18.11 57.86 34.09 98.43 24.4 24.41-5.83 45.36 14.73 48.86 45.43 5.05 44.3 46.5 80.07 90.87 80.39 27.95.2 55.9-.19 83.84-.87 3.47-.08 6.86-3.58 12.91-7l-40.86-46.7 90.3 4.61-24.14 51.11L2000 1080V928c-42.17-29.58-82.66-43.63-133.39-11.35-19.32 12.29-53 2-83.49 2 2.67-20.91-18.6-42.76 11.8-58.38 2.6-1.34.76-21.16-4.74-26.67-20.17-20.17-27.43-42.33-25.92-71 1.75-33.05-49.36-58.36-86.38-47.09-30.17 9.19-61 18.67-92.11 21.71-37.62 3.67-75.9.86-113.88.41-6.31-.07-17.38-1.09-18.17-3.91-11.05-39.73-54.2-31.86-76.84-53-23.43-21.9-43.81-47-66.35-69.91-24.48-24.86-48.56-50.4-75.43-72.47-15.72-12.92-68.15 8.22-79.71 29-4.8 8.65-8.77 17.76-13.12 26.67l-13.89-4.11c3.91-13.5 3.82-31.07 12.56-39.65 17.36-17 21-24.21 3-47.35-27.49-35.31-44.14-79-65.39-119.21l9.46-10c22.52 12.11 44.12 26.78 67.92 35.31 13 4.64 31.07 2.39 44.42-2.9 37.95-15 70.59-13 104 14.46-24.78-1.33-45.38-6.23-64.14-2.32-17 3.55-32.08 16.69-54 28.94l-15.65-13.29c-14.71 43.7-7.79 59.94 31.37 68 24.38 5 50.44 2.41 74.47 8.37 16.49 4.09 31.69 15.81 45.89 26.26 27.36 20.13 53.61 41.78 86.09 67.34l-34.08 31.6c12.85 35.5 79.83 68 118.47 53.75 10.66-3.93 27.3-11.22 32.64-6.75 28.12 23.57 60.25 13.7 89.11 10.3 17.33-2 32.52-22.24 51.05-36.05l15.59 29.4c12.54-6.36 23.56-13.4 35.6-17.51 7.39-2.52 19.89-4.14 24 0 33.37 33.36 65.3 68.17 99.84 104.84l-42.75 12 31.36 45-14.36 28.79c47.58 18.56 93.74 16.7 139.37 7.32 18.62-3.83 13.57-41-8.53-55.17-10.7-6.86-24.08-9.53-36.86-21.09l63.27-8.16zM897.06 370.55c-6.66-4-11.7-12-18.66-13.92-45.22-12.74-90.69-24.64-136.27-36-9.72-2.43-21.33-4.65-30.25-1.63-32.68 11.07-53.81-2.8-77.77-24.15-20.95-18.67-50.23-27.9-75.6-41.72-10.82-5.9-21-12.9-31.54-19.39l6.08-12.83c42.77 8.89 85.31 19.34 128.43 26 21.18 3.27 18.46 33.59 48 30.42 44.05-4.72 83.67 37.8 132.33 18.79 6.34-2.48 21.94 3.4 24.66 9.34 25.62 56 88.35 59.75 129.12 93.9 2.73 2.29 4.61 5.6 9 11.1-45.69 6.9-75.18-20.59-107.53-39.91zm769.21 434.58c10.59 8.13 24 14.44 30.87 25 5.4 8.22 2.78 21.71 3.68 32.28l-79.19 7.72-1 12.73-49.13-61.14c36.14 6.02 69.5 21.7 94.78-16.59zm-122.64-214.52c-1.37-2.34-14.44 2.29-22.09 3.5-11.16 1.76-22.35 3.37-33.52 5l-3.83-12.29 33-30.23c-41.85-49.4-113.32-43-150-92.49 95.67 24.17 189.48 51.12 253.53 135.85-26.12.24-54.29 29.5-77.09-9.34z"/></svg>