<svg xmlns="http://www.w3.org/2000/svg" viewBox="0 0 220.1 249.5"><defs><style>.a,.b{fill:none;stroke:#231f20;stroke-width:4px}.a{stroke-miterlimit:10}.b{stroke-linejoin:round}.c{fill:#010101}</style></defs><title>ottar-logo</title><path class="a" d="M7.68 94.94h204.75c2.12 0 5.68-1.57 5.68-4.44v-7.33c0-9.63-5.76-17.44-12.86-17.44h-6.78c0-39.17-35.84-63.7-88.41-63.7S21.51 26.53 21.51 65.7h-6.64C7.76 65.7 2 73.51 2 83.17v7.36c0 2.84 3.57 4.41 5.68 4.41z"/><path class="b" d="M21.46 94.94V236.6l.35-.37 88.25-89.71 88.25 89.71.35.37V94.94h6.59v147.69c0 2.69-1.61 4.87-3.59 4.87-1.28 0-3.35-2.33-3.35-2.33l-88.25-89.71-88.25 89.71s-2.07 2.33-3.35 2.33c-2 0-3.59-2.18-3.59-4.87V94.94m91.59 55.23V94.94"/><path class="b" d="M113.65 159.11v81.88c0 2.69-1.61 4.87-3.59 4.87s-3.59-2.18-3.59-4.87v-81.88m7.17-64.17v55.23"/><path class="c" d="M80 56c0 12.24-7.66 21.58-20.3 21.58S39.34 68.24 39.34 56s7.71-21.58 20.36-21.58S80 43.76 80 56zm-32.31 0c0 8.76 4.76 14.38 12 14.38S71.64 64.75 71.64 56s-4.7-14.38-11.95-14.38-12 5.68-12 14.38zm55.63 20.17a20.43 20.43 0 0 1-6.67 1.1c-6 0-8.41-2.84-8.41-8.35V52.7h-5.28v-5.75h5.28v-9.16h7.54v9.16h7.08v5.74h-7.08v15.32c0 2.09 1 2.73 3 2.73a14.26 14.26 0 0 0 3.71-.52zm22.56 0a20.43 20.43 0 0 1-6.67 1.1c-6 0-8.41-2.84-8.41-8.35V52.7h-5.28v-5.75h5.28v-9.16h7.54v9.16h7.08v5.74h-7.08v15.32c0 2.09 1 2.73 3 2.73a14.26 14.26 0 0 0 3.71-.52zm30.39-19.59v20h-6.79v-3.06c-1.8 2.49-5 4.06-9.57 4.06-5.63 0-10.61-2.44-10.61-8.47 0-6.84 6.09-9.22 12.82-10.44l7-1.28v-.7c0-2.9-2.15-4.52-5.57-4.52-4.06 0-6.15 1.86-9.22 4.81l-4.76-4.35c3.71-4.41 8-6.67 13.86-6.67 8.49.01 12.84 4.36 12.84 10.62zm-7.19 7.95v-1.74l-5 1c-4.47.93-7.42 2-7.42 4.76 0 1.86 1.68 3 4.52 3 3.84 0 7.9-1.86 7.9-7.02zm32.94-17.05l-1.33 6.55a15.32 15.32 0 0 0-3.77-.58c-4 0-6.5 3.19-6.5 8.53v14.61h-7.54V46.95h7v4.35a7.8 7.8 0 0 1 7.42-4.7 15.86 15.86 0 0 1 4.72.88z"/></svg>